<svg aria-hidden="true" style="position:absolute;width:0;height:0" xmlns="http://www.w3.org/2000/svg" overflow="hidden"><defs><symbol id="icon-facebook" viewBox="0 0 15 32"><path d="M14.995.013v5.148s-3.795-.375-4.748 1.075c-.52.8-.211 3.124-.257 4.798h5.034c-.425 1.949-.73 3.274-1.043 4.973H9.962v15.994H2.987V16.069H.019v-5.036h2.935c.15-3.686.206-7.335 2.036-9.184C7.047-.238 9.011.012 14.995.012z"/></symbol><symbol id="icon-glass" viewBox="0 0 32 32"><path d="M31.111 26.862a3.002 3.002 0 01-4.25 4.236l.001.001-8.769-8.78a11.896 11.896 0 01-6.132 1.68c-6.645 0-12.032-5.387-12.032-12.032S5.316-.065 11.961-.065c6.645 0 12.032 5.387 12.032 12.032 0 2.255-.62 4.365-1.7 6.169l.03-.055 8.788 8.78zm-19.1-23.846a8.987 8.987 0 108.987 8.987 8.993 8.993 0 00-8.987-8.987z"/></symbol><symbol id="icon-instagram" viewBox="0 0 32 32"><path d="M27.976 32.001H3.985a4 4 0 01-3.999-3.999V4.011A4 4 0 013.985.012h23.991a4 4 0 013.999 3.999v23.991a4 4 0 01-3.999 3.999zM15.981 9.809h-.001a6.192 6.192 0 00-5.606 3.561l-.016.038a.343.343 0 01-.028.064l.001-.001a5.093 5.093 0 00-.142.357l-.018.056c-.024.062-.05.125-.071.187-.046.137-.084.287-.125.425a4.512 4.512 0 00-.052.2 5.3 5.3 0 00-.076.462c-.009.062-.021.125-.029.187a5.87 5.87 0 00-.036.661v.001a6.198 6.198 0 0012.396 0 6.56 6.56 0 00-.039-.691l.003.029c-.008-.062-.02-.125-.029-.187a5.635 5.635 0 00-.083-.499l.007.037a5.773 5.773 0 00-.063-.242l.01.042c-.035-.137-.072-.287-.125-.425-.021-.062-.047-.125-.071-.187a6.62 6.62 0 00-.18-.464l.02.052a.297.297 0 01-.027-.06l-.001-.002c-1.004-2.141-3.141-3.597-5.618-3.599zm12.395-4.598v-.003c0-.882-.715-1.597-1.597-1.597h-3.205c-.882 0-1.597.715-1.597 1.597v3.204c0 .882.715 1.597 1.597 1.597h3.205c.882 0 1.597-.715 1.597-1.597V5.21zm0 8.197h-2.949c.222.778.35 1.671.35 2.595 0 5.41-4.386 9.796-9.796 9.796s-9.796-4.386-9.796-9.796c0-.923.128-1.817.367-2.664l-.017.069H3.586v13.398c0 .882.715 1.597 1.597 1.597h21.598c.882 0 1.597-.715 1.597-1.597V13.408z"/></symbol><symbol id="icon-pinterest" viewBox="0 0 24 32"><path d="M10.173 20.78c-.261 1.05-.525 2.137-.797 3.199a23.353 23.353 0 01-.951 3.25l.054-.164a15.909 15.909 0 01-2.575 4.438l.022-.027c-.718.825-.566.5-.782.45-.165-.038-.179-.2-.211-.425a24.233 24.233 0 01.016-4.268l-.007.094c.115-1.599.377-3.082.774-4.508l-.038.16c.605-2.574 1.182-5.098 1.793-7.697.063-.162.104-.35.112-.546v-.004a7.876 7.876 0 01-.533-2.087l-.003-.037a6.808 6.808 0 01.184-2.484l-.011.047a4.047 4.047 0 012.341-2.914l.026-.01c.263-.091.565-.144.88-.144.471 0 .915.118 1.302.327l-.015-.007a2.32 2.32 0 011.081 1.535l.002.015a5.586 5.586 0 01-.108 2.4l.009-.039c-.334 1.524-.772 2.674-1.171 4.136a4.597 4.597 0 00-.233 2.287l-.003-.025a2.663 2.663 0 001.05 1.594l.008.005a3.09 3.09 0 002.041.574l-.01.001a4.47 4.47 0 003.303-1.946l.01-.016a11.526 11.526 0 002.091-5.822l.002-.039a14.831 14.831 0 00.086-2.548l.002.037a6.81 6.81 0 00-1.42-3.914l.012.016a6.626 6.626 0 00-3.092-2.124l-.047-.013a10.131 10.131 0 00-2.959-.432c-.609 0-1.205.053-1.785.153l.062-.009a8.289 8.289 0 00-6.12 4.365l-.022.046a8.738 8.738 0 00-1.046 4.175v.091-.005a5.525 5.525 0 00.86 3.147l-.013-.023c.166.25.41.462.572.75a2.13 2.13 0 01-.154 1.462l.006-.013c-.137.537-.152 1.262-.772 1.275a1.708 1.708 0 01-.803-.304l.005.004a6.395 6.395 0 01-3.023-4.642l-.003-.032c-.118-.607-.185-1.305-.185-2.018s.067-1.411.196-2.087l-.011.069a11.596 11.596 0 015.444-7.655l.054-.029A12.774 12.774 0 0110.485.158l.067-.007c.59-.089 1.284-.147 1.988-.162h.018a11.987 11.987 0 015.482 1.03l-.076-.03a11.152 11.152 0 013.716 2.678l.008.009a10.143 10.143 0 012.274 4.064l.018.072c.292.85.473 1.83.5 2.848v.013a17.324 17.324 0 01-.407 3.077l.022-.116a11.66 11.66 0 01-4.761 8.036l-.035.024a8.572 8.572 0 01-5.014 1.374h.016a5.79 5.79 0 01-2.507-.74l.029.015a4.171 4.171 0 01-1.638-1.543l-.01-.019z"/></symbol><symbol id="icon-shop" viewBox="0 0 32 32"><path d="M31.201 9.076l-4.412 9.784c-.22.488-.689.829-1.241.861h-.004l-12.665.845.729 2.094h13.804a2.935 2.935 0 11-2.935 2.937H10.78a2.935 2.935 0 11-2.935-2.937h2.65L4.838 6.517H1.476a1.468 1.468 0 010-2.936h4.412c.637.005 1.177.41 1.384.975l.003.01.854 2.442h21.727c.811 0 1.468.657 1.469 1.467-.005.217-.05.423-.129.611l.004-.011zm-22.04.866l2.704 7.75 12.612-.841 3.113-6.909H9.161z"/></symbol><symbol id="icon-twitter" viewBox="0 0 32 32"><path d="M21.439 3.095a6.617 6.617 0 015.107 2.029l.002.002a10.627 10.627 0 003.368-1.148l-.056.028.804-.443a6.52 6.52 0 01-2.08 3.031l-.012.009a3.118 3.118 0 01-.693.497l-.017.008v.012a12.001 12.001 0 003.734-1.015l-.075.031v.012a10.594 10.594 0 01-2.175 2.497l-.017.014c-.336.271-.673.542-1.009.8a18.71 18.71 0 01-.318 4.277l.019-.117c-1.615 7.249-5.893 12.172-12.664 14.289-1.607.478-3.453.753-5.363.753-1.339 0-2.647-.135-3.91-.392l.125.021a24.246 24.246 0 01-3.959-1.304l.16.061a15.67 15.67 0 01-1.9-.987l.07.04c-.19-.111-.378-.234-.567-.345a11.016 11.016 0 002.095.072l-.03.001c.636-.098 1.259-.074 1.846-.197a13.222 13.222 0 003.945-1.438l-.067.034a7.377 7.377 0 001.759-1.151l-.008.007a5.627 5.627 0 01-1.963-.357l.039.013a6.55 6.55 0 01-4.088-4.089l-.013-.046a6.412 6.412 0 002.931-.146l-.045.011a4.63 4.63 0 01-2.126-.858l.013.009c-1.836-1.097-3.047-3.074-3.047-5.334 0-.067.001-.135.003-.202v.01c.222.098.442.209.662.308.389.163.844.296 1.316.376l.037.005a1.738 1.738 0 00.894.072l-.011.002h-.032c-.325-.369-.855-.628-1.183-1.034a6.572 6.572 0 01-1.628-4.341c0-.538.064-1.061.186-1.562l-.009.045a7.374 7.374 0 01.713-1.722l-.019.036c.011 0 .021.012.032.012.173.255.365.477.581.674l.003.003a11.717 11.717 0 001.896 1.826l.028.02a18.873 18.873 0 007.773 3.791l.127.024a12.15 12.15 0 002.893.381h.009a6.066 6.066 0 01.041-3.083l-.01.042a6.385 6.385 0 013.618-4.316l.041-.016a6.97 6.97 0 011.388-.435l.047-.008c.261-.037.524-.062.786-.098z"/></symbol></defs></svg>